<?xml version="1.0" encoding="UTF-8" standalone="no"?><!DOCTYPE svg PUBLIC "-//W3C//DTD SVG 1.1//EN" "http://www.w3.org/Graphics/SVG/1.1/DTD/svg11.dtd"><svg width="100%" height="100%" viewBox="0 0 101 100" version="1.1" xmlns="http://www.w3.org/2000/svg" xmlns:xlink="http://www.w3.org/1999/xlink" xml:space="preserve" xmlns:serif="http://www.serif.com/" style="fill-rule:evenodd;clip-rule:evenodd;stroke-linecap:round;stroke-linejoin:round;stroke-miterlimit:1.5;"><rect id="round" x="0.452" y="0" width="100" height="100" style="fill:none;"/><g id="Round"><g id="Top-lines" serif:id="Top lines"><path d="M22.69,22.227l16.687,0.127" style="fill:none;stroke:#b4b4b4;stroke-width:2px;"/><path d="M35.031,13.825l4.346,8.529" style="fill:none;stroke:#b4b4b4;stroke-width:2px;"/><path d="M50.879,28.371l15.331,6.04l-4.013,-11.895" style="fill:none;stroke:#b4b4b4;stroke-width:2px;"/><path d="M78.397,38.972l11.273,11.156" style="fill:none;stroke:#b4b4b4;stroke-width:2px;"/><path d="M66.21,34.411l12.187,4.561" style="fill:none;stroke:#b4b4b4;stroke-width:2px;"/><path d="M78.397,38.972l0,-16.456" style="fill:none;stroke:#b4b4b4;stroke-width:2px;"/><path d="M78.397,38.972l8.315,-3.41" style="fill:none;stroke:#b4b4b4;stroke-width:2px;"/><path d="M78.397,38.972l-6.291,11.156" style="fill:none;stroke:#b4b4b4;stroke-width:2px;"/><path d="M72.106,50.128l-5.896,-15.717" style="fill:none;stroke:#b4b4b4;stroke-width:2px;"/><path d="M50.879,28.514l-14.656,5.897" style="fill:none;stroke:#b4b4b4;stroke-width:2px;"/><path d="M36.223,34.411l3.154,-12.057" style="fill:none;stroke:#b4b4b4;stroke-width:2px;"/><path d="M36.223,34.411l-13.533,4.593" style="fill:none;stroke:#b4b4b4;stroke-width:2px;"/><path d="M22.69,39.004l-11.433,11.082" style="fill:none;stroke:#b4b4b4;stroke-width:2px;"/><path d="M22.69,39.004l6.382,11.082" style="fill:none;stroke:#b4b4b4;stroke-width:2px;"/><path d="M22.69,39.004l0,-16.777" style="fill:none;stroke:#b4b4b4;stroke-width:2px;"/><path d="M22.69,39.004l-8.206,-4.455" style="fill:none;stroke:#b4b4b4;stroke-width:2px;"/><path d="M39.377,22.354l11.343,-11.465l11.447,11.627" style="fill:none;stroke:#b4b4b4;stroke-width:2px;"/><path d="M36.328,34.165l-7.256,15.921" style="fill:none;stroke:#b4b4b4;stroke-width:2px;"/><path d="M50.998,28.399l11.289,-5.873l16.159,-0.033" style="fill:none;stroke:#b4b4b4;stroke-width:2px;"/><path d="M50.998,28.399l-11.649,-6.11" style="fill:none;stroke:#b4b4b4;stroke-width:2px;"/><path d="M62.287,22.526l4.233,-8.373" style="fill:none;stroke:#b4b4b4;stroke-width:2px;"/></g><g id="Bottom-lines" serif:id="Bottom lines"><path d="M22.69,77.825l16.687,-0.127" style="fill:none;stroke:#b4b4b4;stroke-width:2px;"/><path d="M35.031,86.227l4.346,-8.529" style="fill:none;stroke:#b4b4b4;stroke-width:2px;"/><path d="M50.879,71.681l15.331,-6.04l-4.013,11.895" style="fill:none;stroke:#b4b4b4;stroke-width:2px;"/><path d="M78.397,61.08l11.273,-11.155" style="fill:none;stroke:#b4b4b4;stroke-width:2px;"/><path d="M66.21,65.641l12.187,-4.561" style="fill:none;stroke:#b4b4b4;stroke-width:2px;"/><path d="M78.397,61.08l0,16.456" style="fill:none;stroke:#b4b4b4;stroke-width:2px;"/><path d="M78.397,61.08l8.315,3.41" style="fill:none;stroke:#b4b4b4;stroke-width:2px;"/><path d="M78.397,61.08l-6.291,-11.155" style="fill:none;stroke:#b4b4b4;stroke-width:2px;"/><path d="M72.106,49.925l-5.896,15.716" style="fill:none;stroke:#b4b4b4;stroke-width:2px;"/><path d="M50.879,71.538l-14.656,-5.897" style="fill:none;stroke:#b4b4b4;stroke-width:2px;"/><path d="M36.223,65.641l3.154,12.057" style="fill:none;stroke:#b4b4b4;stroke-width:2px;"/><path d="M36.223,65.641l-13.533,-4.593" style="fill:none;stroke:#b4b4b4;stroke-width:2px;"/><path d="M22.69,61.048l-11.433,-11.082" style="fill:none;stroke:#b4b4b4;stroke-width:2px;"/><path d="M22.69,61.048l6.382,-11.082" style="fill:none;stroke:#b4b4b4;stroke-width:2px;"/><path d="M22.69,61.048l0,16.777" style="fill:none;stroke:#b4b4b4;stroke-width:2px;"/><path d="M22.69,61.048l-8.206,4.455" style="fill:none;stroke:#b4b4b4;stroke-width:2px;"/><path d="M39.377,77.698l11.343,11.465l11.447,-11.627" style="fill:none;stroke:#b4b4b4;stroke-width:2px;"/><path d="M36.328,65.887l-7.256,-15.921" style="fill:none;stroke:#b4b4b4;stroke-width:2px;"/><path d="M50.998,71.653l11.289,5.874l16.159,0.032" style="fill:none;stroke:#b4b4b4;stroke-width:2px;"/><path d="M50.998,71.653l-11.649,6.11" style="fill:none;stroke:#b4b4b4;stroke-width:2px;"/><path d="M62.287,77.527l4.233,8.372" style="fill:none;stroke:#b4b4b4;stroke-width:2px;"/></g><ellipse cx="50.452" cy="50" rx="39.218" ry="39.366" style="fill:none;stroke:#b4b4b4;stroke-width:2px;"/></g></svg>