<?xml version="1.0" encoding="UTF-8" standalone="no"?><!DOCTYPE svg PUBLIC "-//W3C//DTD SVG 1.1//EN" "http://www.w3.org/Graphics/SVG/1.1/DTD/svg11.dtd"><svg width="100%" height="100%" viewBox="0 0 101 100" version="1.1" xmlns="http://www.w3.org/2000/svg" xmlns:xlink="http://www.w3.org/1999/xlink" xml:space="preserve" xmlns:serif="http://www.serif.com/" style="fill-rule:evenodd;clip-rule:evenodd;stroke-linecap:round;stroke-linejoin:round;stroke-miterlimit:1.5;"><rect id="cushion-hover" x="0.835" y="0" width="100" height="100" style="fill:none;"/><g id="Cushion"><g id="Bottom"><g id="Right"><path d="M50.835,89.169l11.021,-9.382" style="fill:none;stroke:#072955;stroke-width:2px;"/><path d="M61.856,79.787l12.808,0" style="fill:none;stroke:#072955;stroke-width:2px;"/><path d="M61.856,79.787l1.34,7.893" style="fill:none;stroke:#072955;stroke-width:2px;"/><path d="M61.856,79.787l1.34,-11.617" style="fill:none;stroke:#072955;stroke-width:2px;"/><path d="M63.196,68.17l11.468,-3.723" style="fill:none;stroke:#072955;stroke-width:2px;"/><path d="M74.664,64.447l0,15.34" style="fill:none;stroke:#072955;stroke-width:2px;"/><path d="M74.664,64.447l4.468,1.861" style="fill:none;stroke:#072955;stroke-width:2px;"/><path d="M74.664,64.447l6.138,-14.447" style="fill:none;stroke:#072955;stroke-width:2px;"/><path d="M74.664,64.447l-5.734,-14.447" style="fill:none;stroke:#072955;stroke-width:2px;"/><path d="M68.93,50l-5.734,18.17" style="fill:none;stroke:#072955;stroke-width:2px;"/><path d="M63.196,68.17l-12.361,5.653" style="fill:none;stroke:#072955;stroke-width:2px;"/><path d="M50.835,73.823l11.021,5.964" style="fill:none;stroke:#072955;stroke-width:2px;"/></g><g id="Left"><path d="M50.835,89.169l-11.021,-9.382" style="fill:none;stroke:#072955;stroke-width:2px;"/><path d="M39.814,79.787l-12.808,0" style="fill:none;stroke:#072955;stroke-width:2px;"/><path d="M39.814,79.787l-1.341,7.893" style="fill:none;stroke:#072955;stroke-width:2px;"/><path d="M39.814,79.787l-1.341,-11.617" style="fill:none;stroke:#072955;stroke-width:2px;"/><path d="M38.473,68.17l-11.467,-3.723" style="fill:none;stroke:#072955;stroke-width:2px;"/><path d="M27.006,64.447l0,15.34" style="fill:none;stroke:#072955;stroke-width:2px;"/><path d="M27.006,64.447l-4.468,1.861" style="fill:none;stroke:#072955;stroke-width:2px;"/><path d="M27.006,64.447l-6.138,-14.447" style="fill:none;stroke:#072955;stroke-width:2px;"/><path d="M27.006,64.447l5.734,-14.447" style="fill:none;stroke:#072955;stroke-width:2px;"/><path d="M32.74,50l5.733,18.17" style="fill:none;stroke:#072955;stroke-width:2px;"/><path d="M38.473,68.17l12.362,5.653" style="fill:none;stroke:#072955;stroke-width:2px;"/><path d="M50.835,73.823l-11.021,5.964" style="fill:none;stroke:#072955;stroke-width:2px;"/></g></g><g id="Top"><g id="Right1" serif:id="Right"><path d="M50.835,10.831l11.021,9.382" style="fill:none;stroke:#072955;stroke-width:2px;"/><path d="M61.856,20.213l12.808,0" style="fill:none;stroke:#072955;stroke-width:2px;"/><path d="M61.856,20.213l1.34,-7.893" style="fill:none;stroke:#072955;stroke-width:2px;"/><path d="M61.856,20.213l1.34,11.617" style="fill:none;stroke:#072955;stroke-width:2px;"/><path d="M63.196,31.83l11.468,3.723" style="fill:none;stroke:#072955;stroke-width:2px;"/><path d="M74.664,35.553l0,-15.34" style="fill:none;stroke:#072955;stroke-width:2px;"/><path d="M74.664,35.553l4.468,-1.861" style="fill:none;stroke:#072955;stroke-width:2px;"/><path d="M74.664,35.553l6.138,14.447" style="fill:none;stroke:#072955;stroke-width:2px;"/><path d="M74.664,35.553l-5.734,14.447" style="fill:none;stroke:#072955;stroke-width:2px;"/><path d="M68.93,50l-5.734,-18.17" style="fill:none;stroke:#072955;stroke-width:2px;"/><path d="M63.196,31.83l-12.361,-5.653" style="fill:none;stroke:#072955;stroke-width:2px;"/><path d="M50.835,26.177l11.021,-5.964" style="fill:none;stroke:#072955;stroke-width:2px;"/></g><g id="Left1" serif:id="Left"><path d="M50.835,10.831l-11.021,9.382" style="fill:none;stroke:#072955;stroke-width:2px;"/><path d="M39.814,20.213l-12.808,0" style="fill:none;stroke:#072955;stroke-width:2px;"/><path d="M39.814,20.213l-1.341,-7.893" style="fill:none;stroke:#072955;stroke-width:2px;"/><path d="M39.814,20.213l-1.341,11.617" style="fill:none;stroke:#072955;stroke-width:2px;"/><path d="M38.473,31.83l-11.467,3.723" style="fill:none;stroke:#072955;stroke-width:2px;"/><path d="M27.006,35.553l0,-15.34" style="fill:none;stroke:#072955;stroke-width:2px;"/><path d="M27.006,35.553l-4.468,-1.861" style="fill:none;stroke:#072955;stroke-width:2px;"/><path d="M27.006,35.553l-6.138,14.447" style="fill:none;stroke:#072955;stroke-width:2px;"/><path d="M27.006,35.553l5.734,14.447" style="fill:none;stroke:#072955;stroke-width:2px;"/><path d="M32.74,50l5.733,-18.17" style="fill:none;stroke:#072955;stroke-width:2px;"/><path d="M38.473,31.83l12.362,-5.653" style="fill:none;stroke:#072955;stroke-width:2px;"/><path d="M50.835,26.177l-11.021,-5.964" style="fill:none;stroke:#072955;stroke-width:2px;"/></g></g><g id="Border"><g id="Bottom1" serif:id="Bottom"><g id="Right2" serif:id="Right"><path d="M50.835,89.169c23.514,0.094 29.148,-10.699 29.967,-39.169" style="fill:none;stroke:#072955;stroke-width:2px;"/></g><g id="Left2" serif:id="Left"><path d="M50.835,89.169c-23.514,0.094 -29.148,-10.699 -29.967,-39.169" style="fill:none;stroke:#072955;stroke-width:2px;"/></g></g><g id="Top1" serif:id="Top"><g id="Right3" serif:id="Right"><path d="M50.835,10.831c23.514,-0.094 29.148,10.699 29.967,39.169" style="fill:none;stroke:#072955;stroke-width:2px;"/></g><g id="Left3" serif:id="Left"><path d="M50.835,10.831c-23.514,-0.094 -29.148,10.699 -29.967,39.169" style="fill:none;stroke:#072955;stroke-width:2px;"/></g></g></g></g></svg>