<?xml version="1.0" encoding="UTF-8" standalone="no"?><!DOCTYPE svg PUBLIC "-//W3C//DTD SVG 1.1//EN" "http://www.w3.org/Graphics/SVG/1.1/DTD/svg11.dtd"><svg width="100%" height="100%" viewBox="0 0 101 100" version="1.1" xmlns="http://www.w3.org/2000/svg" xmlns:xlink="http://www.w3.org/1999/xlink" xml:space="preserve" xmlns:serif="http://www.serif.com/" style="fill-rule:evenodd;clip-rule:evenodd;stroke-linecap:round;stroke-linejoin:round;stroke-miterlimit:1.5;"><rect id="emerald" x="0.328" y="0" width="100" height="100" style="fill:none;"/><g id="Emerald"><g id="Bottom"><g id="Top-Lines" serif:id="Top Lines"><path d="M30.964,89.17l38.718,0l-38.718,0Z" style="fill:none;stroke:#b4b4b4;stroke-width:2px;"/><path d="M65.03,83.531l-29.404,0" style="fill:none;stroke:#b4b4b4;stroke-width:2px;"/><path d="M38.016,80.778l24.624,0" style="fill:none;stroke:#b4b4b4;stroke-width:2px;"/></g><g id="Top-Right" serif:id="Top Right"><path d="M69.682,89.17l-7.042,-8.315" style="fill:none;stroke:#b4b4b4;stroke-width:2px;"/><path d="M62.64,80.855l5.237,-5.236" style="fill:none;stroke:#b4b4b4;stroke-width:2px;"/><path d="M67.877,75.619l8.867,7.111" style="fill:none;stroke:#b4b4b4;stroke-width:2px;"/><path d="M76.744,82.73l-7.062,6.44" style="fill:none;stroke:#b4b4b4;stroke-width:2px;"/><path d="M67.614,86.619l6.176,-6.176" style="fill:none;stroke:#b4b4b4;stroke-width:2px;"/><path d="M70.568,78.026l-5.538,5.505" style="fill:none;stroke:#b4b4b4;stroke-width:2px;"/></g><g id="Top-Left" serif:id="Top Left"><path d="M30.974,89.17l7.042,-8.315" style="fill:none;stroke:#b4b4b4;stroke-width:2px;"/><path d="M38.016,80.855l-5.237,-5.236" style="fill:none;stroke:#b4b4b4;stroke-width:2px;"/><path d="M32.779,75.619l-8.867,7.111" style="fill:none;stroke:#b4b4b4;stroke-width:2px;"/><path d="M23.912,82.73l7.062,6.44" style="fill:none;stroke:#b4b4b4;stroke-width:2px;"/><path d="M33.042,86.619l-6.176,-6.176" style="fill:none;stroke:#b4b4b4;stroke-width:2px;"/><path d="M33.042,86.619l34.541,0" style="fill:none;stroke:#b4b4b4;stroke-width:2px;"/><path d="M30.088,78.026l5.538,5.505" style="fill:none;stroke:#b4b4b4;stroke-width:2px;"/></g></g><g id="Top"><g id="Top-Lines1" serif:id="Top Lines"><path d="M30.964,10.83l38.718,0l-38.718,0Z" style="fill:none;stroke:#b4b4b4;stroke-width:2px;"/><path d="M64.906,16.469l-29.28,0" style="fill:none;stroke:#b4b4b4;stroke-width:2px;"/><path d="M38.016,19.222l24.624,0" style="fill:none;stroke:#b4b4b4;stroke-width:2px;"/></g><g id="Top-Right1" serif:id="Top Right"><path d="M69.682,10.83l-7.042,8.315" style="fill:none;stroke:#b4b4b4;stroke-width:2px;"/><path d="M62.64,19.145l5.237,5.236" style="fill:none;stroke:#b4b4b4;stroke-width:2px;"/><path d="M67.877,24.381l8.867,-7.111" style="fill:none;stroke:#b4b4b4;stroke-width:2px;"/><path d="M76.744,17.27l-7.062,-6.44" style="fill:none;stroke:#b4b4b4;stroke-width:2px;"/><path d="M67.509,13.354l6.32,6.222" style="fill:none;stroke:#b4b4b4;stroke-width:2px;"/><path d="M70.712,22.118l-5.75,-5.716" style="fill:none;stroke:#b4b4b4;stroke-width:2px;"/></g><g id="Top-Left1" serif:id="Top Left"><path d="M30.974,10.83l7.042,8.315" style="fill:none;stroke:#b4b4b4;stroke-width:2px;"/><path d="M38.016,19.145l-5.237,5.236" style="fill:none;stroke:#b4b4b4;stroke-width:2px;"/><path d="M32.779,24.381l-8.867,-7.111" style="fill:none;stroke:#b4b4b4;stroke-width:2px;"/><path d="M23.912,17.27l7.062,-6.44" style="fill:none;stroke:#b4b4b4;stroke-width:2px;"/><path d="M33.042,13.381l-6.176,6.176" style="fill:none;stroke:#b4b4b4;stroke-width:2px;"/><path d="M33.042,13.381l34.48,0" style="fill:none;stroke:#b4b4b4;stroke-width:2px;"/><path d="M30.088,21.974l5.538,-5.505" style="fill:none;stroke:#b4b4b4;stroke-width:2px;"/></g></g><g id="Right-lines" serif:id="Right lines"><path d="M73.836,80.398l0,-60.796l2.908,-2.332l0,65.46" style="fill:none;stroke:#b4b4b4;stroke-width:2px;"/><path d="M67.877,75.619l0,-51.238" style="fill:none;stroke:#b4b4b4;stroke-width:2px;"/><path d="M70.706,22.112l0,55.776" style="fill:none;stroke:#b4b4b4;stroke-width:2px;"/></g><g id="Left-lines" serif:id="Left lines"><path d="M23.912,82.73l0,-65.46" style="fill:none;stroke:#b4b4b4;stroke-width:2px;"/><path d="M26.817,19.599l0,60.802" style="fill:none;stroke:#b4b4b4;stroke-width:2px;"/><path d="M30.056,77.803l0,-55.606" style="fill:none;stroke:#b4b4b4;stroke-width:2px;"/><path d="M32.779,24.381l0,51.238" style="fill:none;stroke:#b4b4b4;stroke-width:2px;"/></g></g></svg>