<?xml version="1.0" encoding="UTF-8" standalone="no"?><!DOCTYPE svg PUBLIC "-//W3C//DTD SVG 1.1//EN" "http://www.w3.org/Graphics/SVG/1.1/DTD/svg11.dtd"><svg width="100%" height="100%" viewBox="0 0 100 100" version="1.1" xmlns="http://www.w3.org/2000/svg" xmlns:xlink="http://www.w3.org/1999/xlink" xml:space="preserve" xmlns:serif="http://www.serif.com/" style="fill-rule:evenodd;clip-rule:evenodd;stroke-linecap:round;stroke-linejoin:round;stroke-miterlimit:1.5;"><rect id="heart" x="0" y="0" width="100" height="100" style="fill:none;"/><g id="Shape"><g id="Right"><path d="M49.99,23.331l14.418,-7.178" style="fill:none;stroke:#b4b4b4;stroke-width:2px;"/><path d="M57.549,70.301l-7.559,18.866" style="fill:none;stroke:#b4b4b4;stroke-width:2px;"/><path d="M64.408,16.153l-4.826,-4.189" style="fill:none;stroke:#b4b4b4;stroke-width:2px;"/><path d="M64.408,16.153l0,-5.245" style="fill:none;stroke:#b4b4b4;stroke-width:2px;"/><path d="M64.408,16.153l7.881,-3.882" style="fill:none;stroke:#b4b4b4;stroke-width:2px;"/><path d="M72.289,12.271l1.778,12.351" style="fill:none;stroke:#b4b4b4;stroke-width:2px;"/><path d="M74.089,24.621l6.979,-5.009" style="fill:none;stroke:#b4b4b4;stroke-width:2px;"/><path d="M74.089,24.621l10.929,11.357" style="fill:none;stroke:#b4b4b4;stroke-width:2px;"/><path d="M85.019,35.977l-11.616,11.691" style="fill:none;stroke:#b4b4b4;stroke-width:2px;"/><path d="M71.591,67.176l1.812,-19.508" style="fill:none;stroke:#b4b4b4;stroke-width:2px;"/><path d="M73.403,47.668l-5.216,-12.053" style="fill:none;stroke:#b4b4b4;stroke-width:2px;"/><path d="M68.187,35.615l5.828,-10.992" style="fill:none;stroke:#b4b4b4;stroke-width:2px;"/><path d="M74.089,24.621l-8.141,0.216" style="fill:none;stroke:#b4b4b4;stroke-width:2px;"/><path d="M65.948,24.837l2.239,10.778" style="fill:none;stroke:#b4b4b4;stroke-width:2px;"/><path d="M73.403,47.668l7.03,4.15" style="fill:none;stroke:#b4b4b4;stroke-width:2px;"/><path d="M73.403,47.668l-13.194,8.244" style="fill:none;stroke:#b4b4b4;stroke-width:2px;"/><path d="M68.187,35.615l-7.978,20.297" style="fill:none;stroke:#b4b4b4;stroke-width:2px;"/><path d="M60.209,55.912l-10.219,8.083" style="fill:none;stroke:#b4b4b4;stroke-width:2px;"/><path d="M49.99,63.995l7.559,6.306" style="fill:none;stroke:#b4b4b4;stroke-width:2px;"/><path d="M57.549,70.301l2.66,-14.389" style="fill:none;stroke:#b4b4b4;stroke-width:2px;"/><path d="M57.549,70.301l5.269,6.46" style="fill:none;stroke:#b4b4b4;stroke-width:2px;"/><path d="M57.549,70.301l14.042,-3.126" style="fill:none;stroke:#b4b4b4;stroke-width:2px;"/><path d="M65.948,24.837l-15.958,-1.506" style="fill:none;stroke:#b4b4b4;stroke-width:2px;"/><path d="M64.408,16.153l1.54,8.684" style="fill:none;stroke:#b4b4b4;stroke-width:2px;"/></g><g id="Left"><path d="M50,23.331l-14.418,-7.178" style="fill:none;stroke:#b4b4b4;stroke-width:2px;"/><path d="M42.441,70.301l7.559,18.866" style="fill:none;stroke:#b4b4b4;stroke-width:2px;"/><path d="M35.582,16.153l4.826,-4.189" style="fill:none;stroke:#b4b4b4;stroke-width:2px;"/><path d="M35.582,16.153l0,-5.245" style="fill:none;stroke:#b4b4b4;stroke-width:2px;"/><path d="M35.582,16.153l-7.881,-3.882" style="fill:none;stroke:#b4b4b4;stroke-width:2px;"/><path d="M27.701,12.271l-1.778,12.351" style="fill:none;stroke:#b4b4b4;stroke-width:2px;"/><path d="M25.901,24.621l-6.979,-5.009" style="fill:none;stroke:#b4b4b4;stroke-width:2px;"/><path d="M25.901,24.621l-10.929,11.357" style="fill:none;stroke:#b4b4b4;stroke-width:2px;"/><path d="M14.971,35.977l11.616,11.691" style="fill:none;stroke:#b4b4b4;stroke-width:2px;"/><path d="M28.399,67.176l-1.812,-19.508" style="fill:none;stroke:#b4b4b4;stroke-width:2px;"/><path d="M26.587,47.668l5.216,-12.053" style="fill:none;stroke:#b4b4b4;stroke-width:2px;"/><path d="M31.803,35.615l-5.828,-10.992" style="fill:none;stroke:#b4b4b4;stroke-width:2px;"/><path d="M25.901,24.621l8.141,0.216" style="fill:none;stroke:#b4b4b4;stroke-width:2px;"/><path d="M34.042,24.837l-2.239,10.778" style="fill:none;stroke:#b4b4b4;stroke-width:2px;"/><path d="M26.587,47.668l-7.03,4.15" style="fill:none;stroke:#b4b4b4;stroke-width:2px;"/><path d="M26.587,47.668l13.194,8.244" style="fill:none;stroke:#b4b4b4;stroke-width:2px;"/><path d="M31.803,35.615l7.978,20.297" style="fill:none;stroke:#b4b4b4;stroke-width:2px;"/><path d="M39.781,55.912l10.219,8.083" style="fill:none;stroke:#b4b4b4;stroke-width:2px;"/><path d="M50,63.995l-7.559,6.306" style="fill:none;stroke:#b4b4b4;stroke-width:2px;"/><path d="M42.441,70.301l-2.66,-14.389" style="fill:none;stroke:#b4b4b4;stroke-width:2px;"/><path d="M42.441,70.301l-5.269,6.46" style="fill:none;stroke:#b4b4b4;stroke-width:2px;"/><path d="M42.441,70.301l-14.042,-3.126" style="fill:none;stroke:#b4b4b4;stroke-width:2px;"/><path d="M34.042,24.837l15.958,-1.506" style="fill:none;stroke:#b4b4b4;stroke-width:2px;"/><path d="M35.582,16.153l-1.54,8.684" style="fill:none;stroke:#b4b4b4;stroke-width:2px;"/><path d="M50,23.331l0,-3.539" style="fill:none;stroke:#b4b4b4;stroke-width:2px;"/></g><g id="Border"><g id="Right1" serif:id="Right"><path d="M49.99,19.792c2.926,-5.281 9.201,-8.9 15.958,-8.959c9.563,-0.083 25.368,11.891 16.65,35.508c-7.677,20.796 -14.588,25.161 -32.608,42.826" style="fill:none;stroke:#b4b4b4;stroke-width:2px;"/></g><g id="Left1" serif:id="Left"><path d="M50.01,19.792c-2.926,-5.281 -9.201,-8.9 -15.958,-8.959c-9.563,-0.083 -25.368,11.891 -16.65,35.508c7.677,20.796 14.588,25.161 32.608,42.826" style="fill:none;stroke:#b4b4b4;stroke-width:2px;"/></g></g></g></svg>