<?xml version="1.0" encoding="UTF-8" standalone="no"?><!DOCTYPE svg PUBLIC "-//W3C//DTD SVG 1.1//EN" "http://www.w3.org/Graphics/SVG/1.1/DTD/svg11.dtd"><svg width="100%" height="100%" viewBox="0 0 101 100" version="1.1" xmlns="http://www.w3.org/2000/svg" xmlns:xlink="http://www.w3.org/1999/xlink" xml:space="preserve" xmlns:serif="http://www.serif.com/" style="fill-rule:evenodd;clip-rule:evenodd;stroke-linecap:round;stroke-linejoin:round;stroke-miterlimit:1.5;"><rect id="marquise-hover" x="0.396" y="0" width="100" height="100" style="fill:none;"/><g id="Marquise"><g id="Bottom"><g id="Right"><path d="M50.396,89.386l4.918,-9.589" style="fill:none;stroke:#072955;stroke-width:2px;"/><path d="M55.314,79.797l3.33,2.93" style="fill:none;stroke:#072955;stroke-width:2px;"/><path d="M55.314,79.797l-4.918,-3.329" style="fill:none;stroke:#072955;stroke-width:2px;"/><path d="M55.314,79.797l9.456,-6.526" style="fill:none;stroke:#072955;stroke-width:2px;"/><path d="M55.314,79.797l0.666,-10.926" style="fill:none;stroke:#072955;stroke-width:2px;"/><path d="M55.98,68.871l7.192,-7.724" style="fill:none;stroke:#072955;stroke-width:2px;"/><path d="M63.172,61.147l1.598,12.124" style="fill:none;stroke:#072955;stroke-width:2px;"/><path d="M63.172,61.147l4.829,0.913" style="fill:none;stroke:#072955;stroke-width:2px;"/><path d="M63.172,61.147l5.988,-11.067" style="fill:none;stroke:#072955;stroke-width:2px;"/><path d="M63.172,61.147l-3.596,-11.147" style="fill:none;stroke:#072955;stroke-width:2px;"/><path d="M55.98,68.871l-5.584,7.597" style="fill:none;stroke:#072955;stroke-width:2px;"/><path d="M55.98,68.871l3.596,-18.871" style="fill:none;stroke:#072955;stroke-width:2px;"/></g><g id="Left"><path d="M50.396,89.386l-4.918,-9.589" style="fill:none;stroke:#072955;stroke-width:2px;"/><path d="M45.478,79.797l-3.329,2.93" style="fill:none;stroke:#072955;stroke-width:2px;"/><path d="M45.478,79.797l4.918,-3.329" style="fill:none;stroke:#072955;stroke-width:2px;"/><path d="M45.478,79.797l-9.455,-6.526" style="fill:none;stroke:#072955;stroke-width:2px;"/><path d="M45.478,79.797l-0.665,-10.926" style="fill:none;stroke:#072955;stroke-width:2px;"/><path d="M44.813,68.871l-7.192,-7.724" style="fill:none;stroke:#072955;stroke-width:2px;"/><path d="M37.621,61.147l-1.598,12.124" style="fill:none;stroke:#072955;stroke-width:2px;"/><path d="M37.621,61.147l-4.83,0.913" style="fill:none;stroke:#072955;stroke-width:2px;"/><path d="M37.621,61.147l-5.988,-11.067" style="fill:none;stroke:#072955;stroke-width:2px;"/><path d="M37.621,61.147l3.596,-11.147" style="fill:none;stroke:#072955;stroke-width:2px;"/><path d="M44.813,68.871l5.583,7.597" style="fill:none;stroke:#072955;stroke-width:2px;"/><path d="M44.813,68.871l-3.596,-18.871" style="fill:none;stroke:#072955;stroke-width:2px;"/></g></g><g id="Top"><g id="Right1" serif:id="Right"><path d="M50.396,10.614l4.918,9.589" style="fill:none;stroke:#072955;stroke-width:2px;"/><path d="M55.314,20.203l3.33,-2.93" style="fill:none;stroke:#072955;stroke-width:2px;"/><path d="M55.314,20.203l-4.918,3.329" style="fill:none;stroke:#072955;stroke-width:2px;"/><path d="M55.314,20.203l9.456,6.526" style="fill:none;stroke:#072955;stroke-width:2px;"/><path d="M55.314,20.203l0.666,10.926" style="fill:none;stroke:#072955;stroke-width:2px;"/><path d="M55.98,31.129l7.192,7.724" style="fill:none;stroke:#072955;stroke-width:2px;"/><path d="M63.172,38.853l1.598,-12.124" style="fill:none;stroke:#072955;stroke-width:2px;"/><path d="M63.172,38.853l4.829,-0.913" style="fill:none;stroke:#072955;stroke-width:2px;"/><path d="M63.172,38.853l5.988,11.067" style="fill:none;stroke:#072955;stroke-width:2px;"/><path d="M63.172,38.853l-3.596,11.147" style="fill:none;stroke:#072955;stroke-width:2px;"/><path d="M55.98,31.129l-5.584,-7.597" style="fill:none;stroke:#072955;stroke-width:2px;"/><path d="M55.98,31.129l3.596,18.871" style="fill:none;stroke:#072955;stroke-width:2px;"/></g><g id="Left1" serif:id="Left"><path d="M50.396,10.614l-4.918,9.589" style="fill:none;stroke:#072955;stroke-width:2px;"/><path d="M45.478,20.203l-3.329,-2.93" style="fill:none;stroke:#072955;stroke-width:2px;"/><path d="M45.478,20.203l4.918,3.329" style="fill:none;stroke:#072955;stroke-width:2px;"/><path d="M45.478,20.203l-9.455,6.526" style="fill:none;stroke:#072955;stroke-width:2px;"/><path d="M45.478,20.203l-0.665,10.926" style="fill:none;stroke:#072955;stroke-width:2px;"/><path d="M44.813,31.129l-7.192,7.724" style="fill:none;stroke:#072955;stroke-width:2px;"/><path d="M37.621,38.853l-1.598,-12.124" style="fill:none;stroke:#072955;stroke-width:2px;"/><path d="M37.621,38.853l-4.83,-0.913" style="fill:none;stroke:#072955;stroke-width:2px;"/><path d="M37.621,38.853l-5.988,11.067" style="fill:none;stroke:#072955;stroke-width:2px;"/><path d="M37.621,38.853l3.596,11.147" style="fill:none;stroke:#072955;stroke-width:2px;"/><path d="M44.813,31.129l5.583,-7.597" style="fill:none;stroke:#072955;stroke-width:2px;"/><path d="M44.813,31.129l-3.596,18.871" style="fill:none;stroke:#072955;stroke-width:2px;"/></g></g><g id="Border"><path id="Right-side" serif:id="Right side" d="M50.396,10.614c25.251,11.394 25.541,66.524 0,78.772" style="fill:none;stroke:#072955;stroke-width:2px;"/><path id="Left-side" serif:id="Left side" d="M50.396,10.614c-25.251,11.394 -25.54,66.524 0,78.772" style="fill:none;stroke:#072955;stroke-width:2px;"/></g></g></svg>