<?xml version="1.0" encoding="UTF-8" standalone="no"?><!DOCTYPE svg PUBLIC "-//W3C//DTD SVG 1.1//EN" "http://www.w3.org/Graphics/SVG/1.1/DTD/svg11.dtd"><svg width="100%" height="100%" viewBox="0 0 101 100" version="1.1" xmlns="http://www.w3.org/2000/svg" xmlns:xlink="http://www.w3.org/1999/xlink" xml:space="preserve" xmlns:serif="http://www.serif.com/" style="fill-rule:evenodd;clip-rule:evenodd;stroke-linecap:round;stroke-linejoin:round;stroke-miterlimit:1.5;"><rect id="oval" x="0.124" y="0" width="100" height="100" style="fill:none;"/><g id="Oval"><g id="Bottom-lines" serif:id="Bottom lines"><g id="Top-left" serif:id="Top left"><path d="M42.112,80.694l8.096,8.669" style="fill:none;stroke:#b4b4b4;stroke-width:2px;"/><path d="M42.112,80.694l-3.62,4.334" style="fill:none;stroke:#b4b4b4;stroke-width:2px;"/><path d="M42.112,80.694l-12.902,-7.181" style="fill:none;stroke:#b4b4b4;stroke-width:2px;"/><path d="M42.112,80.694l8.096,-4.568" style="fill:none;stroke:#b4b4b4;stroke-width:2px;"/><path d="M42.112,80.694l-0.648,-10.093" style="fill:none;stroke:#b4b4b4;stroke-width:2px;"/><path d="M41.464,70.601l-8.785,-8.121" style="fill:none;stroke:#b4b4b4;stroke-width:2px;"/><path d="M32.679,62.48l4.393,-12.48" style="fill:none;stroke:#b4b4b4;stroke-width:2px;"/><path d="M32.679,62.48l-8.717,-12.48" style="fill:none;stroke:#b4b4b4;stroke-width:2px;"/><path d="M32.679,62.48l-3.53,10.879" style="fill:none;stroke:#b4b4b4;stroke-width:2px;"/><path d="M32.679,62.48l-6.832,2.12" style="fill:none;stroke:#b4b4b4;stroke-width:2px;"/><path d="M50.208,76.126l-8.744,-5.525" style="fill:none;stroke:#b4b4b4;stroke-width:2px;"/><path d="M41.464,70.601l-4.392,-20.601" style="fill:none;stroke:#b4b4b4;stroke-width:2px;"/></g><g id="Top-right" serif:id="Top right"><path d="M58.221,80.694l-8.097,8.669" style="fill:none;stroke:#b4b4b4;stroke-width:2px;"/><path d="M58.221,80.694l3.62,4.334" style="fill:none;stroke:#b4b4b4;stroke-width:2px;"/><path d="M58.221,80.694l12.901,-7.181" style="fill:none;stroke:#b4b4b4;stroke-width:2px;"/><path d="M58.221,80.694l-8.097,-4.568" style="fill:none;stroke:#b4b4b4;stroke-width:2px;"/><path d="M58.221,80.694l0.648,-10.093" style="fill:none;stroke:#b4b4b4;stroke-width:2px;"/><path d="M58.869,70.601l8.784,-8.121" style="fill:none;stroke:#b4b4b4;stroke-width:2px;"/><path d="M67.653,62.48l-4.392,-12.48" style="fill:none;stroke:#b4b4b4;stroke-width:2px;"/><path d="M67.653,62.48l8.718,-12.48" style="fill:none;stroke:#b4b4b4;stroke-width:2px;"/><path d="M67.653,62.48l3.53,10.879" style="fill:none;stroke:#b4b4b4;stroke-width:2px;"/><path d="M67.653,62.48l6.833,2.12" style="fill:none;stroke:#b4b4b4;stroke-width:2px;"/><path d="M50.124,76.126l8.745,-5.525" style="fill:none;stroke:#b4b4b4;stroke-width:2px;"/><path d="M58.869,70.601l4.392,-20.601" style="fill:none;stroke:#b4b4b4;stroke-width:2px;"/></g></g><g id="Top-lines" serif:id="Top lines"><g id="Top-left1" serif:id="Top left"><path d="M42.112,19.306l8.096,-8.669" style="fill:none;stroke:#b4b4b4;stroke-width:2px;"/><path d="M42.112,19.306l-3.62,-4.334" style="fill:none;stroke:#b4b4b4;stroke-width:2px;"/><path d="M42.112,19.306l-12.902,7.181" style="fill:none;stroke:#b4b4b4;stroke-width:2px;"/><path d="M42.112,19.306l8.096,4.568" style="fill:none;stroke:#b4b4b4;stroke-width:2px;"/><path d="M42.112,19.306l-0.648,10.093" style="fill:none;stroke:#b4b4b4;stroke-width:2px;"/><path d="M41.464,29.399l-8.785,8.121" style="fill:none;stroke:#b4b4b4;stroke-width:2px;"/><path d="M32.679,37.52l4.393,12.48" style="fill:none;stroke:#b4b4b4;stroke-width:2px;"/><path d="M32.679,37.52l-8.717,12.48" style="fill:none;stroke:#b4b4b4;stroke-width:2px;"/><path d="M32.679,37.52l-3.53,-10.879" style="fill:none;stroke:#b4b4b4;stroke-width:2px;"/><path d="M32.679,37.52l-6.832,-2.12" style="fill:none;stroke:#b4b4b4;stroke-width:2px;"/><path d="M50.208,23.874l-8.744,5.525" style="fill:none;stroke:#b4b4b4;stroke-width:2px;"/><path d="M41.464,29.399l-4.392,20.601" style="fill:none;stroke:#b4b4b4;stroke-width:2px;"/></g><g id="Top-right1" serif:id="Top right"><path d="M58.221,19.306l-8.097,-8.669" style="fill:none;stroke:#b4b4b4;stroke-width:2px;"/><path d="M58.221,19.306l3.62,-4.334" style="fill:none;stroke:#b4b4b4;stroke-width:2px;"/><path d="M58.221,19.306l12.901,7.181" style="fill:none;stroke:#b4b4b4;stroke-width:2px;"/><path d="M58.221,19.306l-8.097,4.568" style="fill:none;stroke:#b4b4b4;stroke-width:2px;"/><path d="M58.221,19.306l0.648,10.093" style="fill:none;stroke:#b4b4b4;stroke-width:2px;"/><path d="M58.869,29.399l8.784,8.121" style="fill:none;stroke:#b4b4b4;stroke-width:2px;"/><path d="M67.653,37.52l-4.392,12.48" style="fill:none;stroke:#b4b4b4;stroke-width:2px;"/><path d="M67.653,37.52l8.718,12.48" style="fill:none;stroke:#b4b4b4;stroke-width:2px;"/><path d="M67.653,37.52l3.53,-10.879" style="fill:none;stroke:#b4b4b4;stroke-width:2px;"/><path d="M67.653,37.52l6.833,-2.12" style="fill:none;stroke:#b4b4b4;stroke-width:2px;"/><path d="M50.124,23.874l8.745,5.525" style="fill:none;stroke:#b4b4b4;stroke-width:2px;"/><path d="M58.869,29.399l4.392,20.601" style="fill:none;stroke:#b4b4b4;stroke-width:2px;"/></g></g><ellipse cx="50.124" cy="50" rx="26.247" ry="39.363" style="fill:none;stroke:#b4b4b4;stroke-width:2px;"/></g></svg>