<?xml version="1.0" encoding="UTF-8" standalone="no"?><!DOCTYPE svg PUBLIC "-//W3C//DTD SVG 1.1//EN" "http://www.w3.org/Graphics/SVG/1.1/DTD/svg11.dtd"><svg width="100%" height="100%" viewBox="0 0 101 100" version="1.1" xmlns="http://www.w3.org/2000/svg" xmlns:xlink="http://www.w3.org/1999/xlink" xml:space="preserve" xmlns:serif="http://www.serif.com/" style="fill-rule:evenodd;clip-rule:evenodd;stroke-linecap:round;stroke-linejoin:round;stroke-miterlimit:1.5;"><rect id="pear-hover" x="0.607" y="0" width="100" height="100" style="fill:none;"/><g id="Pear"><g id="Right"><path d="M50.607,10.715l10.152,8.224" style="fill:none;stroke:#072955;stroke-width:2px;"/><path d="M62.686,13.36l-1.927,5.579" style="fill:none;stroke:#072955;stroke-width:2px;"/><path d="M60.759,18.939l10.513,1.201" style="fill:none;stroke:#072955;stroke-width:2px;"/><path d="M60.759,18.939l-10.152,5.145" style="fill:none;stroke:#072955;stroke-width:2px;"/><path d="M60.759,18.939l1.413,8.234" style="fill:none;stroke:#072955;stroke-width:2px;"/><path d="M62.172,27.173l8.472,2.699" style="fill:none;stroke:#072955;stroke-width:2px;"/><path d="M70.644,29.872l6.408,10.61" style="fill:none;stroke:#072955;stroke-width:2px;"/><path d="M70.644,29.872l5.012,-1.349" style="fill:none;stroke:#072955;stroke-width:2px;"/><path d="M70.644,29.872l-5.654,10.537" style="fill:none;stroke:#072955;stroke-width:2px;"/><path d="M64.99,40.409l4.231,10.033" style="fill:none;stroke:#072955;stroke-width:2px;"/><path d="M69.221,50.442l5.083,3.247" style="fill:none;stroke:#072955;stroke-width:2px;"/><path d="M77.052,40.482l-7.831,9.96" style="fill:none;stroke:#072955;stroke-width:2px;"/><path d="M69.221,50.442l-0.382,15.325" style="fill:none;stroke:#072955;stroke-width:2px;"/><path d="M50.607,78.922l18.232,-13.155" style="fill:none;stroke:#072955;stroke-width:2px;"/><path d="M64.99,40.409l-6.168,20.138" style="fill:none;stroke:#072955;stroke-width:2px;"/><path d="M58.822,60.547l10.399,-10.105" style="fill:none;stroke:#072955;stroke-width:2px;"/><path d="M58.822,60.547l-8.215,7.838" style="fill:none;stroke:#072955;stroke-width:2px;"/><path d="M71.272,20.14l-0.628,9.732" style="fill:none;stroke:#072955;stroke-width:2px;"/><path d="M50.607,24.084l11.565,3.089" style="fill:none;stroke:#072955;stroke-width:2px;"/><path d="M62.172,27.173l2.818,13.236" style="fill:none;stroke:#072955;stroke-width:2px;"/><path d="M50.607,68.385l0,10.537" style="fill:none;stroke:#072955;stroke-width:2px;"/><path d="M50.607,78.922l0,10.363" style="fill:none;stroke:#072955;stroke-width:2px;"/><path d="M50.607,78.922l4.071,6.389" style="fill:none;stroke:#072955;stroke-width:2px;"/><path d="M50.607,78.922l8.241,-18.408" style="fill:none;stroke:#072955;stroke-width:2px;"/></g><g id="Left"><path d="M50.607,10.715l-10.151,8.224" style="fill:none;stroke:#072955;stroke-width:2px;"/><path d="M38.529,13.36l1.927,5.579" style="fill:none;stroke:#072955;stroke-width:2px;"/><path d="M40.456,18.939l-10.514,1.201" style="fill:none;stroke:#072955;stroke-width:2px;"/><path d="M40.456,18.939l10.151,5.145" style="fill:none;stroke:#072955;stroke-width:2px;"/><path d="M40.456,18.939l-1.413,8.234" style="fill:none;stroke:#072955;stroke-width:2px;"/><path d="M39.043,27.173l-8.472,2.699" style="fill:none;stroke:#072955;stroke-width:2px;"/><path d="M30.571,29.872l-6.408,10.61" style="fill:none;stroke:#072955;stroke-width:2px;"/><path d="M30.571,29.872l-5.012,-1.349" style="fill:none;stroke:#072955;stroke-width:2px;"/><path d="M30.571,29.872l5.654,10.537" style="fill:none;stroke:#072955;stroke-width:2px;"/><path d="M36.225,40.409l-4.231,10.033" style="fill:none;stroke:#072955;stroke-width:2px;"/><path d="M31.994,50.442l-5.083,3.247" style="fill:none;stroke:#072955;stroke-width:2px;"/><path d="M24.163,40.482l7.831,9.96" style="fill:none;stroke:#072955;stroke-width:2px;"/><path d="M31.994,50.442l0.382,15.325" style="fill:none;stroke:#072955;stroke-width:2px;"/><path d="M50.607,78.922l-18.231,-13.155" style="fill:none;stroke:#072955;stroke-width:2px;"/><path d="M36.225,40.409l6.168,20.138" style="fill:none;stroke:#072955;stroke-width:2px;"/><path d="M42.393,60.547l-10.399,-10.105" style="fill:none;stroke:#072955;stroke-width:2px;"/><path d="M42.393,60.547l8.214,7.838" style="fill:none;stroke:#072955;stroke-width:2px;"/><path d="M29.942,20.14l0.629,9.732" style="fill:none;stroke:#072955;stroke-width:2px;"/><path d="M50.607,24.084l-11.564,3.089" style="fill:none;stroke:#072955;stroke-width:2px;"/><path d="M39.043,27.173l-2.818,13.236" style="fill:none;stroke:#072955;stroke-width:2px;"/><path d="M50.607,68.385l0,10.537" style="fill:none;stroke:#072955;stroke-width:2px;"/><path d="M50.607,78.922l0,10.363" style="fill:none;stroke:#072955;stroke-width:2px;"/><path d="M50.607,78.922l-4.07,6.389" style="fill:none;stroke:#072955;stroke-width:2px;"/><path d="M50.607,78.922l-8.24,-18.408" style="fill:none;stroke:#072955;stroke-width:2px;"/></g><g id="Border"><path id="Right1" serif:id="Right" d="M50.607,89.285c11.846,-10.327 27.36,-31.728 26.591,-54.188c-0.305,-8.879 -7.841,-24.3 -26.591,-24.382" style="fill:none;stroke:#072955;stroke-width:2px;"/><path id="Left1" serif:id="Left" d="M50.607,89.285c-11.845,-10.327 -27.36,-31.728 -26.59,-54.188c0.305,-8.879 7.841,-24.3 26.59,-24.382" style="fill:none;stroke:#072955;stroke-width:2px;"/></g></g></svg>