<?xml version="1.0" encoding="UTF-8" standalone="no"?><!DOCTYPE svg PUBLIC "-//W3C//DTD SVG 1.1//EN" "http://www.w3.org/Graphics/SVG/1.1/DTD/svg11.dtd"><svg width="100%" height="100%" viewBox="0 0 101 100" version="1.1" xmlns="http://www.w3.org/2000/svg" xmlns:xlink="http://www.w3.org/1999/xlink" xml:space="preserve" xmlns:serif="http://www.serif.com/" style="fill-rule:evenodd;clip-rule:evenodd;stroke-linecap:round;stroke-linejoin:round;stroke-miterlimit:1.5;"><rect id="princess" x="0.819" y="0" width="100" height="100" style="fill:none;"/><g id="Princess"><g id="Bottom-lines" serif:id="Bottom lines"><g id="Top-left" serif:id="Top left"><path d="M28.974,80.819l-16.833,8.329" style="fill:none;stroke:#b4b4b4;stroke-width:2px;"/><path d="M20.534,71.482l7.81,0.395l22.421,2.775" style="fill:none;stroke:#b4b4b4;stroke-width:2px;"/><path d="M20.534,71.482l6.323,-21.341" style="fill:none;stroke:#b4b4b4;stroke-width:2px;"/><path d="M50.736,74.621l-21.264,6.047" style="fill:none;stroke:#b4b4b4;stroke-width:2px;"/><path d="M28.974,80.819l21.791,-6.167" style="fill:none;stroke:#b4b4b4;stroke-width:2px;"/><path d="M26.857,50.141l2.117,30.678" style="fill:none;stroke:#b4b4b4;stroke-width:2px;"/><path d="M12.141,89.148l8.393,-17.666" style="fill:none;stroke:#b4b4b4;stroke-width:2px;"/><path d="M12.064,89.366l38.723,0" style="fill:none;stroke:#b4b4b4;stroke-width:2px;"/><path d="M12.032,89.148l0,-39.007" style="fill:none;stroke:#b4b4b4;stroke-width:2px;"/><path d="M20.534,71.482l-0.524,-21.3" style="fill:none;stroke:#b4b4b4;stroke-width:2px;"/><path d="M28.974,80.819l21.845,0.031" style="fill:none;stroke:#b4b4b4;stroke-width:2px;"/></g><g id="Top-right" serif:id="Top right"><path d="M72.663,80.819l16.833,8.329" style="fill:none;stroke:#b4b4b4;stroke-width:2px;"/><path d="M81.103,71.482l-7.81,0.395l-22.421,2.775" style="fill:none;stroke:#b4b4b4;stroke-width:2px;"/><path d="M81.103,71.482l-6.323,-21.341" style="fill:none;stroke:#b4b4b4;stroke-width:2px;"/><path d="M50.902,74.621l21.263,6.047" style="fill:none;stroke:#b4b4b4;stroke-width:2px;"/><path d="M72.663,80.819l-21.791,-6.167" style="fill:none;stroke:#b4b4b4;stroke-width:2px;"/><path d="M74.78,50.141l-2.117,30.678" style="fill:none;stroke:#b4b4b4;stroke-width:2px;"/><path d="M89.496,89.148l-8.393,-17.666" style="fill:none;stroke:#b4b4b4;stroke-width:2px;"/><path d="M89.574,89.366l-38.724,0" style="fill:none;stroke:#b4b4b4;stroke-width:2px;"/><path d="M89.606,89.148l0,-39.007" style="fill:none;stroke:#b4b4b4;stroke-width:2px;"/><path d="M81.103,71.482l0.524,-21.3" style="fill:none;stroke:#b4b4b4;stroke-width:2px;"/><path d="M72.663,80.819l-21.844,0.031" style="fill:none;stroke:#b4b4b4;stroke-width:2px;"/></g></g><g id="Top-lines" serif:id="Top lines"><g id="Top-left1" serif:id="Top left"><path d="M28.974,19.377l-16.833,-8.329" style="fill:none;stroke:#b4b4b4;stroke-width:2px;"/><path d="M20.534,28.714l7.81,-0.395l22.421,-2.775" style="fill:none;stroke:#b4b4b4;stroke-width:2px;"/><path d="M20.534,28.714l6.323,21.341" style="fill:none;stroke:#b4b4b4;stroke-width:2px;"/><path d="M50.736,25.575l-21.264,-6.048" style="fill:none;stroke:#b4b4b4;stroke-width:2px;"/><path d="M28.974,19.377l21.791,6.167" style="fill:none;stroke:#b4b4b4;stroke-width:2px;"/><path d="M26.857,50.055l2.117,-30.678" style="fill:none;stroke:#b4b4b4;stroke-width:2px;"/><path d="M12.141,11.048l8.393,17.666" style="fill:none;stroke:#b4b4b4;stroke-width:2px;"/><path d="M12.064,10.83l38.723,0" style="fill:none;stroke:#b4b4b4;stroke-width:2px;"/><path d="M12.032,11.048l0,39.007" style="fill:none;stroke:#b4b4b4;stroke-width:2px;"/><path d="M20.534,28.714l-0.524,21.3" style="fill:none;stroke:#b4b4b4;stroke-width:2px;"/><path d="M28.974,19.377l21.845,-0.031" style="fill:none;stroke:#b4b4b4;stroke-width:2px;"/></g><g id="Top-right1" serif:id="Top right"><path d="M72.663,19.377l16.833,-8.329" style="fill:none;stroke:#b4b4b4;stroke-width:2px;"/><path d="M81.103,28.714l-7.81,-0.395l-22.421,-2.775" style="fill:none;stroke:#b4b4b4;stroke-width:2px;"/><path d="M81.103,28.714l-6.323,21.341" style="fill:none;stroke:#b4b4b4;stroke-width:2px;"/><path d="M50.902,25.575l21.263,-6.048" style="fill:none;stroke:#b4b4b4;stroke-width:2px;"/><path d="M72.663,19.377l-21.791,6.167" style="fill:none;stroke:#b4b4b4;stroke-width:2px;"/><path d="M74.78,50.055l-2.117,-30.678" style="fill:none;stroke:#b4b4b4;stroke-width:2px;"/><path d="M89.496,11.048l-8.393,17.666" style="fill:none;stroke:#b4b4b4;stroke-width:2px;"/><path d="M89.574,10.83l-38.724,0" style="fill:none;stroke:#b4b4b4;stroke-width:2px;"/><path d="M89.606,11.048l0,39.007" style="fill:none;stroke:#b4b4b4;stroke-width:2px;"/><path d="M81.103,28.714l0.524,21.3" style="fill:none;stroke:#b4b4b4;stroke-width:2px;"/><path d="M72.663,19.377l-21.844,-0.031" style="fill:none;stroke:#b4b4b4;stroke-width:2px;"/></g></g></g></svg>