<?xml version="1.0" encoding="UTF-8" standalone="no"?><!DOCTYPE svg PUBLIC "-//W3C//DTD SVG 1.1//EN" "http://www.w3.org/Graphics/SVG/1.1/DTD/svg11.dtd"><svg width="100%" height="100%" viewBox="0 0 101 100" version="1.1" xmlns="http://www.w3.org/2000/svg" xmlns:xlink="http://www.w3.org/1999/xlink" xml:space="preserve" xmlns:serif="http://www.serif.com/" style="fill-rule:evenodd;clip-rule:evenodd;stroke-linecap:round;stroke-linejoin:round;stroke-miterlimit:1.5;"><rect id="radiant" x="0.293" y="0" width="100" height="100" style="fill:none;"/><g id="Radiant"><g id="Bottom"><g id="Right"><path d="M74.814,74.636l-7.072,-2.396" style="fill:none;stroke:#b4b4b4;stroke-width:2px;"/><path d="M67.742,72.24l2.045,8.337" style="fill:none;stroke:#b4b4b4;stroke-width:2px;"/><path d="M69.787,80.577l1.742,8.809" style="fill:none;stroke:#b4b4b4;stroke-width:2px;"/><path d="M69.787,80.577l-19.482,-5.134" style="fill:none;stroke:#b4b4b4;stroke-width:2px;"/><path d="M50.305,75.443l17.437,-3.203" style="fill:none;stroke:#b4b4b4;stroke-width:2px;"/><path d="M69.787,80.577l-19.482,0" style="fill:none;stroke:#b4b4b4;stroke-width:2px;"/><path d="M67.742,72.24l2.667,-22.222" style="fill:none;stroke:#b4b4b4;stroke-width:2px;"/><path d="M70.409,50.018l4.405,24.618" style="fill:none;stroke:#b4b4b4;stroke-width:2px;"/><path d="M74.814,74.636l0,-24.618" style="fill:none;stroke:#b4b4b4;stroke-width:2px;"/><path d="M81.911,77.274l0,-27.274" style="fill:none;stroke:#b4b4b4;stroke-width:2px;"/><path d="M71.529,89.386l10.382,-12.112" style="fill:none;stroke:#b4b4b4;stroke-width:2px;"/><path d="M71.529,89.386l-21.224,0" style="fill:none;stroke:#b4b4b4;stroke-width:2px;"/><path d="M74.814,74.636l7.097,2.638" style="fill:none;stroke:#b4b4b4;stroke-width:2px;"/><path d="M74.814,74.636l-5.027,5.941" style="fill:none;stroke:#b4b4b4;stroke-width:2px;"/></g><g id="Left"><path d="M25.772,74.636l7.072,-2.396" style="fill:none;stroke:#b4b4b4;stroke-width:2px;"/><path d="M32.844,72.24l-2.045,8.337" style="fill:none;stroke:#b4b4b4;stroke-width:2px;"/><path d="M30.799,80.577l-1.742,8.809" style="fill:none;stroke:#b4b4b4;stroke-width:2px;"/><path d="M30.799,80.577l19.482,-5.134" style="fill:none;stroke:#b4b4b4;stroke-width:2px;"/><path d="M50.281,75.443l-17.437,-3.203" style="fill:none;stroke:#b4b4b4;stroke-width:2px;"/><path d="M30.799,80.577l19.482,0" style="fill:none;stroke:#b4b4b4;stroke-width:2px;"/><path d="M32.844,72.24l-2.667,-22.222" style="fill:none;stroke:#b4b4b4;stroke-width:2px;"/><path d="M30.177,50.018l-4.405,24.618" style="fill:none;stroke:#b4b4b4;stroke-width:2px;"/><path d="M25.772,74.636l0,-24.618" style="fill:none;stroke:#b4b4b4;stroke-width:2px;"/><path d="M18.675,77.274l0,-27.274" style="fill:none;stroke:#b4b4b4;stroke-width:2px;"/><path d="M29.057,89.386l-10.382,-12.112" style="fill:none;stroke:#b4b4b4;stroke-width:2px;"/><path d="M29.057,89.386l21.224,0" style="fill:none;stroke:#b4b4b4;stroke-width:2px;"/><path d="M25.772,74.636l-7.097,2.638" style="fill:none;stroke:#b4b4b4;stroke-width:2px;"/><path d="M25.772,74.636l5.027,5.941" style="fill:none;stroke:#b4b4b4;stroke-width:2px;"/></g></g><g id="Top"><g id="Right1" serif:id="Right"><path d="M74.814,25.364l-7.072,2.396" style="fill:none;stroke:#b4b4b4;stroke-width:2px;"/><path d="M67.742,27.76l2.045,-8.337" style="fill:none;stroke:#b4b4b4;stroke-width:2px;"/><path d="M69.787,19.423l1.742,-8.809" style="fill:none;stroke:#b4b4b4;stroke-width:2px;"/><path d="M69.787,19.423l-19.482,5.134" style="fill:none;stroke:#b4b4b4;stroke-width:2px;"/><path d="M50.305,24.557l17.437,3.203" style="fill:none;stroke:#b4b4b4;stroke-width:2px;"/><path d="M69.787,19.423l-19.482,0" style="fill:none;stroke:#b4b4b4;stroke-width:2px;"/><path d="M67.742,27.76l2.667,22.222" style="fill:none;stroke:#b4b4b4;stroke-width:2px;"/><path d="M70.409,49.982l4.405,-24.618" style="fill:none;stroke:#b4b4b4;stroke-width:2px;"/><path d="M74.814,25.364l0,24.618" style="fill:none;stroke:#b4b4b4;stroke-width:2px;"/><path d="M81.911,22.726l0,27.274" style="fill:none;stroke:#b4b4b4;stroke-width:2px;"/><path d="M71.529,10.614l10.382,12.112" style="fill:none;stroke:#b4b4b4;stroke-width:2px;"/><path d="M71.529,10.614l-21.224,0" style="fill:none;stroke:#b4b4b4;stroke-width:2px;"/><path d="M74.814,25.364l7.097,-2.638" style="fill:none;stroke:#b4b4b4;stroke-width:2px;"/><path d="M69.787,19.423l5.027,5.941" style="fill:none;stroke:#b4b4b4;stroke-width:2px;"/></g><g id="Left1" serif:id="Left"><path d="M25.772,25.364l7.072,2.396" style="fill:none;stroke:#b4b4b4;stroke-width:2px;"/><path d="M32.844,27.76l-2.045,-8.337" style="fill:none;stroke:#b4b4b4;stroke-width:2px;"/><path d="M30.799,19.423l-1.742,-8.809" style="fill:none;stroke:#b4b4b4;stroke-width:2px;"/><path d="M30.799,19.423l19.482,5.134" style="fill:none;stroke:#b4b4b4;stroke-width:2px;"/><path d="M50.281,24.557l-17.437,3.203" style="fill:none;stroke:#b4b4b4;stroke-width:2px;"/><path d="M30.799,19.423l19.482,0" style="fill:none;stroke:#b4b4b4;stroke-width:2px;"/><path d="M32.844,27.76l-2.667,22.222" style="fill:none;stroke:#b4b4b4;stroke-width:2px;"/><path d="M30.177,49.982l-4.405,-24.618" style="fill:none;stroke:#b4b4b4;stroke-width:2px;"/><path d="M25.772,25.364l0,24.618" style="fill:none;stroke:#b4b4b4;stroke-width:2px;"/><path d="M18.675,22.726l0,27.274" style="fill:none;stroke:#b4b4b4;stroke-width:2px;"/><path d="M29.057,10.614l-10.382,12.112" style="fill:none;stroke:#b4b4b4;stroke-width:2px;"/><path d="M29.057,10.614l21.224,0" style="fill:none;stroke:#b4b4b4;stroke-width:2px;"/><path d="M25.772,25.364l-7.097,-2.638" style="fill:none;stroke:#b4b4b4;stroke-width:2px;"/><path d="M30.799,19.423l-5.027,5.941" style="fill:none;stroke:#b4b4b4;stroke-width:2px;"/></g></g></g></svg>